<?xml version="1.0" encoding="UTF-8" standalone="no"?>
<svg width="400" height="400" viewBox="0 0 400 400" xmlns="http://www.w3.org/2000/svg">
  <!-- Board background -->
  <rect width="400" height="400" fill="#f0d9b5"/>
  
  <!-- Chess squares -->
  <g fill="#b58863">
    <!-- Row 1 -->
    <rect x="50" y="0" width="50" height="50"/>
    <rect x="150" y="0" width="50" height="50"/>
    <rect x="250" y="0" width="50" height="50"/>
    <rect x="350" y="0" width="50" height="50"/>
    
    <!-- Row 2 -->
    <rect x="0" y="50" width="50" height="50"/>
    <rect x="100" y="50" width="50" height="50"/>
    <rect x="200" y="50" width="50" height="50"/>
    <rect x="300" y="50" width="50" height="50"/>
    
    <!-- Row 3 -->
    <rect x="50" y="100" width="50" height="50"/>
    <rect x="150" y="100" width="50" height="50"/>
    <rect x="250" y="100" width="50" height="50"/>
    <rect x="350" y="100" width="50" height="50"/>
    
    <!-- Row 4 -->
    <rect x="0" y="150" width="50" height="50"/>
    <rect x="100" y="150" width="50" height="50"/>
    <rect x="200" y="150" width="50" height="50"/>
    <rect x="300" y="150" width="50" height="50"/>
    
    <!-- Row 5 -->
    <rect x="50" y="200" width="50" height="50"/>
    <rect x="150" y="200" width="50" height="50"/>
    <rect x="250" y="200" width="50" height="50"/>
    <rect x="350" y="200" width="50" height="50"/>
    
    <!-- Row 6 -->
    <rect x="0" y="250" width="50" height="50"/>
    <rect x="100" y="250" width="50" height="50"/>
    <rect x="200" y="250" width="50" height="50"/>
    <rect x="300" y="250" width="50" height="50"/>
    
    <!-- Row 7 -->
    <rect x="50" y="300" width="50" height="50"/>
    <rect x="150" y="300" width="50" height="50"/>
    <rect x="250" y="300" width="50" height="50"/>
    <rect x="350" y="300" width="50" height="50"/>
    
    <!-- Row 8 -->
    <rect x="0" y="350" width="50" height="50"/>
    <rect x="100" y="350" width="50" height="50"/>
    <rect x="200" y="350" width="50" height="50"/>
    <rect x="300" y="350" width="50" height="50"/>
  </g>
  
  <!-- Chess pieces -->
  <circle cx="175" cy="175" r="20" fill="#333"/>
  <text x="175" y="182" font-family="Arial" font-size="18" fill="white" text-anchor="middle">K</text>
  
  <circle cx="225" cy="225" r="20" fill="#333"/>
  <text x="225" y="232" font-family="Arial" font-size="18" fill="white" text-anchor="middle">P</text>
  
  <!-- Possible moves (arrows) -->
  <path d="M225,225 L225,175" stroke="#e74c3c" stroke-width="3" fill="none" marker-end="url(#arrowhead)"/>
  <path d="M225,225 L175,175" stroke="#3498db" stroke-width="3" fill="none" marker-end="url(#arrowhead)"/>
  <path d="M225,225 L275,175" stroke="#2ecc71" stroke-width="3" fill="none" marker-end="url(#arrowhead)"/>
  
  <!-- Arrow head marker -->
  <defs>
    <marker id="arrowhead" markerWidth="10" markerHeight="7" refX="0" refY="3.5" orient="auto">
      <polygon points="0 0, 10 3.5, 0 7" fill="#333"/>
    </marker>
  </defs>
</svg>