<?xml version="1.0" encoding="UTF-8" standalone="no"?>
<svg width="300" height="300" viewBox="0 0 300 300" xmlns="http://www.w3.org/2000/svg">
  <!-- Background -->
  <rect width="300" height="300" fill="#f5f5f5"/>
  
  <!-- Pattern Grid -->
  <g transform="translate(25, 25)">
    <!-- Row 1 -->
    <rect x="0" y="0" width="80" height="80" fill="white" stroke="#ddd" stroke-width="2"/>
    <rect x="85" y="0" width="80" height="80" fill="white" stroke="#ddd" stroke-width="2"/>
    <rect x="170" y="0" width="80" height="80" fill="white" stroke="#ddd" stroke-width="2"/>
    
    <!-- Row 2 -->
    <rect x="0" y="85" width="80" height="80" fill="white" stroke="#ddd" stroke-width="2"/>
    <rect x="85" y="85" width="80" height="80" fill="#f8f9fa" stroke="#aaa" stroke-width="2" stroke-dasharray="5,5"/>
    <rect x="170" y="85" width="80" height="80" fill="white" stroke="#ddd" stroke-width="2"/>
    
    <!-- Row 3 -->
    <rect x="0" y="170" width="80" height="80" fill="white" stroke="#ddd" stroke-width="2"/>
    <rect x="85" y="170" width="80" height="80" fill="white" stroke="#ddd" stroke-width="2"/>
    <rect x="170" y="170" width="80" height="80" fill="white" stroke="#ddd" stroke-width="2"/>
    
    <!-- Numbers in cells -->
    <text x="40" y="45" font-family="Arial" font-size="24" fill="#333" text-anchor="middle">1</text>
    <text x="125" y="45" font-family="Arial" font-size="24" fill="#333" text-anchor="middle">2</text>
    <text x="210" y="45" font-family="Arial" font-size="24" fill="#333" text-anchor="middle">3</text>
    
    <text x="40" y="130" font-family="Arial" font-size="24" fill="#333" text-anchor="middle">4</text>
    <text x="125" y="130" font-family="Arial" font-size="24" fill="#333" text-anchor="middle">?</text>
    <text x="210" y="130" font-family="Arial" font-size="24" fill="#333" text-anchor="middle">6</text>
    
    <text x="40" y="215" font-family="Arial" font-size="24" fill="#333" text-anchor="middle">7</text>
    <text x="125" y="215" font-family="Arial" font-size="24" fill="#333" text-anchor="middle">8</text>
    <text x="210" y="215" font-family="Arial" font-size="24" fill="#333" text-anchor="middle">9</text>
  </g>
</svg>